<?xml version="1.0" encoding="UTF-8"?>
<svg version="1.1" xmlns="http://www.w3.org/2000/svg" width="391" height="160">
<path d="M0 0 C4.89783568 3.33943342 7.87326031 7.29997917 9.75 12.875 C10.18269889 15.30292152 10.55504963 17.74216505 10.875 20.1875 C11.12636719 22.06888672 11.12636719 22.06888672 11.3828125 23.98828125 C11.50398438 24.94089844 11.62515625 25.89351562 11.75 26.875 C12.76707031 25.51568359 12.76707031 25.51568359 13.8046875 24.12890625 C30.80064992 1.74458059 30.80064992 1.74458059 44.75 -1.125 C50.14732264 -1.62707652 54.37563751 -1.70402385 58.75 1.875 C61.90805702 6.61208553 62.21451792 11.7332605 61.38671875 17.33203125 C56.88443594 34.42965739 43.19163178 47.99889694 30.75 59.875 C31.36746094 60.76058594 31.98492187 61.64617187 32.62109375 62.55859375 C57.93115086 99.36361416 57.93115086 99.36361416 55.75 118.875 C53.96974471 122.99769645 51.55469641 125.50763334 47.75 127.875 C41.37379254 129.46905187 36.65736682 128.7250454 30.75 125.875 C21.33212838 120.08073326 14.78352442 111.98947306 8.75 102.875 C8.60304687 103.865 8.45609375 104.855 8.3046875 105.875 C5.87494562 120.7432888 5.87494562 120.7432888 -0.25 125.875 C-5.64381818 129.07620916 -11.10026956 129.62729031 -17.25390625 128.51171875 C-22.71084979 126.98957321 -25.15958247 124.1148095 -28.00390625 119.3203125 C-41.93432339 91.98350645 -38.44697852 46.50889189 -29.25 17.875 C-26.04616576 9.96203796 -22.46890671 3.26822821 -14.46484375 -0.3984375 C-9.42197499 -2.05271191 -4.96456666 -1.71850384 0 0 Z " fill="#FFFFFF" transform="translate(46.25,16.125)"/>
<path d="M0 0 C0.84232178 0.00563965 1.68464355 0.0112793 2.55249023 0.01708984 C14.0742653 0.24206796 23.50914566 3.704758 32.140625 11.5390625 C44.1848618 24.10175983 46.32566314 38.34722932 45.99609375 55.0703125 C45.42710837 68.2018339 40.32715775 80.63401553 31.25 90.25 C22.22392644 98.51217423 11.1530574 102.71282411 -1.125 102.45703125 C-12.27306616 101.72046259 -23.42403323 97.38441948 -31.3125 89.3125 C-42.29347084 75.93253328 -46.55601749 60.44540764 -45.3125 43.3125 C-43.36270653 28.5661628 -38.06068837 16.74219464 -26.3125 7.3125 C-18.03546635 2.06996751 -9.72533479 -0.06786696 0 0 Z M-9.3125 44.3125 C-10.88705739 47.46161479 -10.66049118 49.83258816 -10.3125 53.3125 C-8.61307675 56.37146185 -6.47923558 58.67267726 -3.375 60.375 C0.00999691 60.27242434 1.9006502 59.20992965 4.6875 57.3125 C7.15652011 53.30034232 7.82720492 51.24386613 7.125 46.5625 C5.63409269 43.19175303 4.98891038 41.87149935 1.6875 40.3125 C-3.40145391 39.55457069 -5.6735782 40.77754739 -9.3125 44.3125 Z " fill="#FFFFFF" transform="translate(144.3125,42.6875)"/>
<path d="M0 0 C4.85982486 3.77090145 7.44327691 7.87664065 8.2578125 14.09765625 C8.5486289 20.03212846 7.72055595 24.99188319 3.9453125 29.7109375 C-2.17043434 34.74890928 -7.35395515 35.85227515 -15.1796875 35.8359375 C-16.41976562 35.83851562 -17.65984375 35.84109375 -18.9375 35.84375 C-22.0546875 35.7109375 -22.0546875 35.7109375 -24.0546875 34.7109375 C-24.0546875 39.0009375 -24.0546875 43.2909375 -24.0546875 47.7109375 C-22.2603125 47.7934375 -20.4659375 47.8759375 -18.6171875 47.9609375 C-11.62222137 48.54729239 -6.2515325 50.33379635 -0.6171875 54.5234375 C3.30666758 60.01683461 3.25921919 65.67341637 2.47265625 72.125 C1.57770212 76.51358987 -0.04266711 79.3122813 -3.74609375 81.88671875 C-10.01838829 85.37132683 -16.93142218 86.7109375 -24.0546875 86.7109375 C-24.00248047 87.9484375 -24.00248047 87.9484375 -23.94921875 89.2109375 C-23.67815134 100.77648012 -23.67905632 115.7184043 -32.0546875 124.7109375 C-36.50355891 128.71302054 -41.25208724 128.84244119 -47.0546875 128.7109375 C-50.87679631 127.92691518 -53.45433502 126.27793706 -56.3046875 123.5859375 C-61.80880333 114.54346149 -62.21382232 104.59849586 -62.1171875 94.2734375 C-62.11267578 93.35111328 -62.10816406 92.42878906 -62.10351562 91.47851562 C-62.09182688 89.22258702 -62.07544205 86.96679783 -62.0546875 84.7109375 C-63.14394531 84.58074219 -64.23320312 84.45054688 -65.35546875 84.31640625 C-70.75715307 83.43228685 -73.6649105 81.13728758 -77.4296875 77.2734375 C-80.13776388 71.33650083 -80.17207891 64.74751396 -78.4296875 58.453125 C-76.02423369 53.49187652 -71.95030356 51.58072105 -67.0546875 49.7109375 C-65.5696875 49.2159375 -65.5696875 49.2159375 -64.0546875 48.7109375 C-63.98475586 48.06656738 -63.91482422 47.42219727 -63.84277344 46.75830078 C-63.51134251 43.78234944 -63.15814463 40.80935003 -62.8046875 37.8359375 C-62.69511719 36.82273438 -62.58554687 35.80953125 -62.47265625 34.765625 C-60.86841468 21.59395739 -56.04670316 11.6232033 -45.9296875 2.8984375 C-33.75967342 -5.92636191 -13.12044951 -8.23146072 0 0 Z " fill="#FFFFFF" transform="translate(327.0546875,17.2890625)"/>
<path d="M0 0 C6.16205774 5.64855293 8.78633789 15.36126612 9.16113281 23.49829102 C9.18112564 24.83341978 9.19478307 26.16865386 9.203125 27.50390625 C9.20882507 28.22303696 9.21452515 28.94216766 9.22039795 29.68309021 C9.22981618 31.20350694 9.23636926 32.72394378 9.24023438 34.24438477 C9.2498679 36.53114212 9.28088993 38.81697153 9.3125 41.10351562 C9.39792482 53.01946809 8.64346605 65.06659886 0.8125 74.6875 C-4.21162984 78.8184512 -8.66666771 80.34077373 -15.1875 79.875 C-21.24232887 78.99547593 -24.95508105 76.79834385 -28.80078125 71.93359375 C-38.08067949 56.97089137 -37.03290785 33.51495425 -33.8125 16.8125 C-31.83029913 9.35830799 -28.65418312 3.21972588 -22 -1 C-14.57392429 -4.30047809 -7.06162419 -3.87758828 0 0 Z " fill="#FFFFFF" transform="translate(369,66)"/>
<path d="M0 0 C1.52367187 -0.02416992 1.52367187 -0.02416992 3.078125 -0.04882812 C10.63912081 -0.05373786 15.69357915 0.69971185 21.5 5.875 C24.87969971 9.75171437 24.83718977 12.66713333 24.875 17.625 C24.90078125 18.94113281 24.9265625 20.25726563 24.953125 21.61328125 C24.60223567 25.56914075 24.11987786 27.26728144 21.625 30.3125 C13.8542716 36.62414427 3.34075945 36.64878629 -6.3125 36.1875 C-11.59750772 35.62844629 -16.10751245 34.5926511 -20.375 31.3125 C-24.45475773 26.17990156 -24.70499392 20.69238237 -24.375 14.3125 C-23.59111533 9.76596889 -22.85156846 7.78906846 -19.5625 4.5 C-13.04699654 0.02857606 -7.68904211 -0.02420983 0 0 Z " fill="#FFFFFF" transform="translate(218.375,65.6875)"/>
<path d="M0 0 C4.64576446 2.7835382 7.51011446 6.2538167 9.8125 11.1875 C11.30295104 18.097773 11.07219858 23.88891693 7.890625 30.296875 C4.67313092 35.10504031 0.06480026 38.14313944 -5.4375 39.8125 C-11.70247398 40.98948141 -17.25624866 40.38311765 -22.8125 37.1875 C-27.26214592 34.12947641 -29.79212713 30.49861861 -31.5 25.375 C-32.16235564 17.92823011 -32.66160315 11.11035134 -28 4.92578125 C-20.87800844 -2.4373194 -9.36173534 -4.31391628 0 0 Z " fill="#FFFFFF" transform="translate(369.5,14.625)"/>
</svg>
