<?xml version="1.0" encoding="UTF-8"?>
<svg version="1.1" xmlns="http://www.w3.org/2000/svg" width="943" height="268">
<path d="M0 0 C33.73361964 -0.06869133 67.46722186 -0.12154158 101.20089593 -0.15319599 C105.18495613 -0.15694803 109.16901618 -0.16083101 113.15307617 -0.16479492 C113.94621891 -0.16558185 114.73936164 -0.16636878 115.55653901 -0.16717956 C128.3930019 -0.18022761 141.22942441 -0.20387814 154.06586336 -0.23145839 C167.24071888 -0.25952932 180.41555328 -0.27617983 193.59043747 -0.28226548 C201.71772109 -0.28637843 209.84489058 -0.29936113 217.97213907 -0.3237494 C224.20786331 -0.34150652 230.44350083 -0.34336135 236.6792469 -0.33932304 C239.23460212 -0.34014813 241.78996168 -0.34611217 244.34529114 -0.35761642 C247.83679265 -0.37256388 251.32780768 -0.36894491 254.81932068 -0.36076355 C256.33248569 -0.37387134 256.33248569 -0.37387134 257.87621969 -0.38724393 C264.30922085 -0.34656087 271.4560393 -0.00165812 276.58889383 4.34575874 C281.27606941 9.66074429 282.29296783 14.07654557 282 21 C281.4375619 23.73146858 280.81945557 26.36004893 280.0859375 29.04296875 C279.87969757 29.82456863 279.67345764 30.60616852 279.46096802 31.41145325 C278.7740257 34.00577891 278.07465564 36.59657663 277.375 39.1875 C276.88669496 41.0200026 276.39908031 42.8526893 275.91210938 44.68554688 C274.57589984 49.70444498 273.22799296 54.72013671 271.87780762 59.73529053 C270.65030424 64.30057547 269.42959635 68.86767005 268.20840454 73.43464661 C266.64195255 79.2905741 265.07161016 85.14545498 263.5 91 C263.197453 92.1272348 262.89490601 93.2544696 262.58319092 94.41586304 C261.71349105 97.65272459 260.84153677 100.88896959 259.96875 104.125 C259.71288116 105.07760208 259.45701233 106.03020416 259.19338989 107.01167297 C258.47287385 109.67751717 257.74009872 112.33953069 257 115 C256.75096924 115.90685547 256.50193848 116.81371094 256.24536133 117.74804688 C255.86963989 119.06772461 255.86963989 119.06772461 255.48632812 120.4140625 C255.26658325 121.19475098 255.04683838 121.97543945 254.82043457 122.77978516 C251.73720255 131.12345783 244.27405389 137.65771387 236.375 141.3125 C230.30862675 143.90768134 224.62585159 144.15058835 218.12260437 144.15821838 C217.22811783 144.16315636 216.33363129 144.16809434 215.4120391 144.17318195 C212.41491268 144.18853952 209.41780766 144.19691288 206.4206543 144.20532227 C204.27215894 144.21490215 202.12366546 144.2249123 199.97517395 144.23532104 C194.14095738 144.26236414 188.30673273 144.28337697 182.47248816 144.30332303 C176.37591563 144.32518622 170.279368 144.35257329 164.18281555 144.37937927 C152.63739035 144.42930163 141.09195132 144.47424218 129.54649907 144.51740164 C116.40272314 144.56677789 103.25897219 144.62169459 90.11522043 144.67708123 C63.07683693 144.79089427 36.03842946 144.89773482 9 145 C8.73768743 145.97949458 8.73768743 145.97949458 8.47007561 146.97877693 C6.7925029 153.24290161 5.11485337 159.50700571 3.43712509 165.77108872 C2.57534289 168.9887087 1.71359521 172.20633792 0.85189819 175.42398071 C-15.79820099 237.59640198 -15.79820099 237.59640198 -17 240 C-32.51 240 -48.02 240 -64 240 C-61.65768613 230.04516605 -59.31939341 220.13378085 -56.67848206 210.26036072 C-56.48273653 209.5273921 -56.286991 208.79442348 -56.0853138 208.0392437 C-55.88313681 207.28250422 -55.68095982 206.52576473 -55.47265625 205.74609375 C-55.03850936 204.11422989 -54.6045495 202.48231625 -54.17076111 200.85035706 C-53.26206714 197.43377259 -52.35177986 194.01761837 -51.44018555 190.60180664 C-50.09440393 185.55892453 -48.7531348 180.51485217 -47.41210938 175.47070312 C-40.35219051 148.95883643 -33.17228651 122.48228865 -26 96 C53.53 96 133.06 96 215 96 C215.33 93.36 215.66 90.72 216 88 C219.63 74.8 223.26 61.6 227 48 C147.8 48 68.6 48 -13 48 C-1 2 -1 2 0 0 Z " fill="#FEFEFE" transform="translate(406,15)"/>
<path d="M0 0 C15.51 0 31.02 0 47 0 C45.76654027 6.7840285 44.52395949 13.28860279 42.71606445 19.8972168 C42.49573579 20.71704324 42.27540712 21.53686968 42.04840183 22.38153934 C41.32425002 25.07192475 40.59379361 27.76055413 39.86328125 30.44921875 C39.34587929 32.36669207 38.82889031 34.28427686 38.31228638 36.20196533 C37.21751466 40.26261398 36.12000908 44.32250927 35.02023315 48.38180542 C33.3028099 54.72088654 31.59140805 61.06158295 29.88110352 67.40258789 C27.89595542 74.76127124 25.90958356 82.11962143 23.92131329 89.47746181 C20.04417116 103.82613533 16.18800151 118.1803219 12.34683228 132.53866577 C11.45152343 135.88508426 10.55534082 139.23126764 9.65893555 142.57739258 C7.21466129 151.70396152 4.77619771 160.83199952 2.35546875 169.96484375 C1.96622752 171.43172209 1.576986 172.89860035 1.18774414 174.36547852 C0.51107573 176.9160621 -0.16253088 179.46738318 -0.83422852 182.01928711 C-1.11322998 183.07253174 -1.39223145 184.12577637 -1.6796875 185.2109375 C-1.91413574 186.10087402 -2.14858398 186.99081055 -2.39013672 187.90771484 C-3 190 -3 190 -4 192 C59.69 192 123.38 192 189 192 C189.66 188.7 190.32 185.4 191 182 C191.59285881 179.57361465 192.20950746 177.15288036 192.85327148 174.73950195 C193.02826266 174.08008637 193.20325384 173.4206708 193.38354778 172.74127293 C193.95979493 170.57281554 194.54041089 168.40555462 195.12109375 166.23828125 C195.53744089 164.67529108 195.95352064 163.11222966 196.36935425 161.54910278 C197.48893105 157.34377091 198.61235576 153.13947591 199.73654556 148.93537521 C200.91599527 144.52203645 202.09190542 140.1077546 203.26831055 135.69360352 C205.93746345 125.68148404 208.61226828 115.67087938 211.28865051 105.66069031 C211.98530863 103.05495076 212.6818275 100.44917405 213.3782959 97.84338379 C217.1173692 83.85411442 220.85788243 69.86523075 224.60522461 55.87817383 C224.7892858 55.19109502 224.973347 54.50401621 225.1629858 53.79611683 C226.06051379 50.44591759 226.95837799 47.0958091 227.8568573 43.74586487 C229.67557797 36.96229666 231.48512671 30.17640755 233.28271484 23.38720703 C233.83707929 21.2965704 234.39157656 19.20596903 234.94609642 17.11537361 C235.46902992 15.14084771 235.98959016 13.16570611 236.51008606 11.1905365 C236.82281967 10.0114119 237.13555328 8.83228729 237.45776367 7.61743164 C237.73238937 6.57752579 238.00701508 5.53761993 238.28996277 4.46620178 C239 2 239 2 240 0 C255.51 0 271.02 0 287 0 C285.76654032 6.78402826 284.52395961 13.28860306 282.71606445 19.8972168 C282.38553747 21.12707967 282.38553747 21.12707967 282.04833317 22.38178825 C281.32420248 25.0720902 280.59376917 27.7606367 279.86328125 30.44921875 C279.34624496 32.36536441 278.82962217 34.28162168 278.31338501 36.19798279 C276.93626997 41.30594856 275.55382679 46.41245797 274.17039108 51.5187149 C272.73145904 56.83368613 271.29761468 62.15002904 269.86352539 67.46630859 C268.15076785 73.8146144 266.43767136 80.16282724 264.72233582 86.51043701 C260.72730627 101.29441478 256.75599276 116.08448245 252.80496216 130.88027954 C251.94295619 134.10459125 251.07834012 137.32819025 250.21264648 140.55151367 C249.93016556 141.60334335 249.64768463 142.65517303 249.35664368 143.73887634 C248.79130853 145.84391394 248.22595031 147.94894534 247.66056824 150.05397034 C245.88154011 156.68679168 244.11901 163.32385385 242.3663187 169.96367455 C240.91169501 175.47229223 239.44756293 180.97833348 237.97741604 186.48282814 C237.09574114 189.78590013 236.21875743 193.09004785 235.35372925 196.39752197 C234.40169732 200.02880982 233.43318694 203.65533132 232.4609375 207.28125 C232.18446884 208.35241058 231.90800018 209.42357117 231.62315369 210.52719116 C228.38348696 222.45681214 222.65737161 229.60417035 212.57421875 236.66796875 C205.91045857 240.116136 199.12458109 240.29067653 191.79064941 240.26069641 C190.78898821 240.26452196 189.78732701 240.26834751 188.75531244 240.27228898 C185.41299281 240.28257321 182.07084642 240.27863553 178.72851562 240.2746582 C176.32655173 240.27900715 173.92458923 240.28419091 171.52262878 240.29014587 C165.6842987 240.3021375 159.84602216 240.30468988 154.00768125 240.30234561 C149.26108182 240.30055971 144.51449633 240.30231792 139.76789856 240.30657005 C138.75304386 240.30746284 138.75304386 240.30746284 137.71768704 240.30837366 C136.34308016 240.30958545 134.96847328 240.31079959 133.59386641 240.31201603 C120.71603862 240.32288119 107.83823705 240.32073369 94.96040779 240.31463119 C83.18750995 240.30946061 71.41469482 240.32072298 59.64181334 240.33972941 C47.54134083 240.35911439 35.44090743 240.3673628 23.34041929 240.36360615 C16.55169164 240.36169541 9.76303442 240.36416948 2.97431946 240.37832069 C-3.40822045 240.39088755 -9.79059461 240.38896558 -16.17313194 240.37590981 C-18.51443729 240.37354218 -20.85575426 240.37628534 -23.19704628 240.38453293 C-26.39510656 240.39498578 -29.59260914 240.38691103 -32.79064941 240.3742218 C-33.71517206 240.38159609 -34.6396947 240.38897037 -35.59223318 240.39656812 C-42.67406176 240.33752841 -48.36201337 239.29390142 -53.875 234.5 C-57.84244596 229.83241651 -59.12180839 226.08336885 -59 220 C-58.179951 215.2346726 -56.9005068 210.60959183 -55.6015625 205.95703125 C-55.23081893 204.58347552 -54.86159906 203.20950773 -54.49380493 201.8351593 C-53.72553678 198.97374388 -52.94853242 196.11492245 -52.16418457 193.25787354 C-51.05825835 189.22473543 -49.97900266 185.18493533 -48.90917969 181.14208984 C-46.94093907 173.71173117 -44.95194132 166.28705219 -42.95891571 158.86330795 C-41.94888088 155.09967943 -40.9406368 151.33557111 -39.93212891 147.5715332 C-37.29044917 137.71372118 -34.64548832 127.85679051 -32 118 C-31.76589417 117.12772766 -31.53178833 116.25545532 -31.29058838 115.35675049 C-30.07970662 110.84505511 -28.8687789 106.33337207 -27.6578064 101.82170105 C-26.67729749 98.16865129 -25.69685173 94.51558458 -24.71646118 90.86250305 C-24.22845675 89.04415836 -23.74045017 87.22581424 -23.25244141 85.4074707 C-23.01209482 84.51191876 -22.77174824 83.61636683 -22.52411842 82.69367695 C-21.12344695 77.47499752 -19.7220539 72.25651257 -18.32003975 67.0381937 C-17.43657363 63.74961493 -16.55348847 60.46093399 -15.67058182 57.17220497 C-15.24195744 55.57566285 -14.81324513 53.97914433 -14.38444138 52.38265038 C-12.0332304 43.62675259 -9.69636103 34.86731727 -7.38769531 26.10009766 C-7.17757875 25.30287324 -6.9674622 24.50564882 -6.75097847 23.68426609 C-5.75082696 19.88857835 -4.75306482 16.0922924 -3.75961304 12.29484558 C-3.40703659 10.95411248 -3.05438978 9.61339788 -2.70166016 8.27270508 C-2.24299057 6.52114861 -2.24299057 6.52114861 -1.77505493 4.73420715 C-1 2 -1 2 0 0 Z " fill="#FEFEFE" transform="translate(70,15)"/>
<path d="M0 0 C2.94276206 1.47138103 3.02672734 3.37000071 4.09130859 6.44677734 C4.49868256 7.61244232 4.90605652 8.7781073 5.32577515 9.97909546 C5.76678893 11.26466614 6.207673 12.55028133 6.6484375 13.8359375 C7.10615863 15.15360169 7.56455291 16.47103223 8.02359009 17.78823853 C9.23516456 21.27035467 10.43802141 24.75542049 11.63897705 28.24121094 C13.08551486 32.43483909 14.54204617 36.62500324 15.99714088 40.81566811 C17.13271439 44.08673116 18.26685447 47.35826562 19.39633179 50.63143921 C21.61550618 57.05373867 23.87914661 63.44847004 26.29776001 69.79873657 C27 72 27 72 27 75 C27.66 75 28.32 75 29 75 C29.09978149 74.37787628 29.19956299 73.75575256 29.30236816 73.11477661 C30.68201913 65.00541506 32.70259587 57.1163818 34.84375 49.1796875 C35.21740102 47.78537113 35.59089259 46.39101201 35.9642334 44.99661255 C36.74109862 42.09975575 37.52150512 39.2038808 38.30419922 36.30859375 C39.30810122 32.5929352 40.3003582 28.87427218 41.28978729 25.15473747 C42.05461984 22.28631826 42.82675479 19.41990361 43.60102844 16.55401993 C43.97040445 15.18233072 44.3371871 13.80994046 44.70133972 12.43685532 C45.20796839 10.52991383 45.72577025 8.62595121 46.24414062 6.72216797 C46.53567017 5.6383786 46.82719971 4.55458923 47.12756348 3.43795776 C48 1 48 1 50 0 C50.24419678 0.71800781 50.48839355 1.43601562 50.73999023 2.17578125 C56.48033104 19.0256553 62.33310252 35.83333819 68.28515625 52.60961914 C69.37661209 55.69205277 70.46239354 58.77643452 71.546875 61.86132812 C74.66968734 70.72798651 77.80890543 79.5807025 81.17333984 88.35908508 C82.47800827 91.76848951 83.75574756 95.18768082 85.03131104 98.60806274 C85.62959488 100.18726695 86.24195544 101.76121838 86.86907959 103.32919312 C91.6221181 115.22081516 91.6221181 115.22081516 90.08349609 119.62109375 C88.54494017 121.71541278 86.96871547 123.31340836 85 125 C84.39671875 125.763125 83.7934375 126.52625 83.171875 127.3125 C82.70265625 127.869375 82.2334375 128.42625 81.75 129 C81.27046875 129.5775 80.7909375 130.155 80.296875 130.75 C79 132 79 132 77 132 C76.79503906 132.52464844 76.59007812 133.04929688 76.37890625 133.58984375 C74.39489803 137.05764282 71.69490357 139.69254935 68.9375 142.5625 C64.96420789 146.76233947 61.10885427 150.97717147 57.5 155.5 C53.3349224 160.71411766 48.84042704 165.56656355 44.25195312 170.40625 C41.28263593 173.4501041 41.28263593 173.4501041 39 177 C38.34 177 37.68 177 37 177 C36.78601563 177.53367188 36.57203125 178.06734375 36.3515625 178.6171875 C34.4950211 181.89028072 31.96055174 184.42611664 29.375 187.125 C24.79548088 191.972565 20.54154494 196.93748573 16.5234375 202.26953125 C16.02070312 202.84058594 15.51796875 203.41164062 15 204 C14.34 204 13.68 204 13 204 C12.78085937 204.53882813 12.56171875 205.07765625 12.3359375 205.6328125 C10.54505459 208.80613134 8.12611773 211.26008697 5.625 213.875 C-0.81812206 220.72156062 -6.93062941 227.82221599 -13 235 C-14.53364612 231.93270776 -13.34277336 229.84892345 -12.46118164 226.57836914 C-12.2857634 225.91965317 -12.11034515 225.26093719 -11.92961121 224.58226013 C-11.34632012 222.39808533 -10.75312485 220.21672166 -10.16015625 218.03515625 C-9.75443436 216.52081971 -9.34945016 215.00628535 -8.94517517 213.49156189 C-7.87765756 209.49784482 -6.80224186 205.50630149 -5.72454834 201.51531982 C-4.00125365 195.13069333 -2.28715943 188.74361203 -0.57821465 182.35513115 C0.02102302 180.12121944 0.62525761 177.88870158 1.22996521 175.65626526 C1.59741418 174.28789895 1.96469712 172.91948805 2.33178711 171.55102539 C2.81596352 169.75804771 2.81596352 169.75804771 3.30992126 167.92884827 C4.11466734 165.01483394 4.11466734 165.01483394 4 162 C2.68445979 163.28857013 1.37265903 164.58095891 0.0625 165.875 C-0.66839844 166.59429687 -1.39929688 167.31359375 -2.15234375 168.0546875 C-4.05667999 169.87027192 -4.05667999 169.87027192 -5 172 C-5.66 172 -6.32 172 -7 172 C-7.23847656 172.556875 -7.47695313 173.11375 -7.72265625 173.6875 C-9.28886889 176.52296753 -11.23473009 178.62722978 -13.4375 181 C-16.70433082 184.52881363 -16.70433082 184.52881363 -19.66015625 188.3125 C-20.10230469 188.869375 -20.54445313 189.42625 -21 190 C-21.66 190 -22.32 190 -23 190 C-23.2475 190.5671875 -23.495 191.134375 -23.75 191.71875 C-25.20387987 194.37208077 -26.93536535 196.28789145 -29 198.5 C-33.52772414 203.41665344 -37.74519993 208.52220461 -41.93359375 213.7265625 C-42.61550781 214.47679687 -43.29742188 215.22703125 -44 216 C-44.66 216 -45.32 216 -46 216 C-46.34417969 216.81984375 -46.34417969 216.81984375 -46.6953125 217.65625 C-48.38013612 220.68287926 -50.52299446 222.95955485 -52.875 225.5 C-53.73867188 226.4384375 -54.60234375 227.376875 -55.4921875 228.34375 C-57.62531752 230.60314005 -59.78765997 232.81852983 -62 235 C-60.67765964 226.46044337 -58.54494199 218.19801111 -56.24854279 209.88175774 C-55.35541021 206.64643224 -54.47308547 203.40818535 -53.59006882 200.17008686 C-53.11858799 198.44122061 -52.64661812 196.71248765 -52.17418289 194.98388195 C-49.4957034 185.17630848 -46.87994269 175.3521754 -44.265625 165.52734375 C-43.77428471 163.68254692 -43.28289032 161.8377645 -42.79144287 159.99299622 C-41.79006817 156.23372144 -40.78900871 152.47436293 -39.78820801 148.7149353 C-37.15251725 138.81462023 -34.5141503 128.91501835 -31.875 119.015625 C-31.48710674 117.56061364 -31.48710674 117.56061364 -31.09137726 116.07620811 C-26.30069892 98.1083815 -21.47780542 80.14943723 -16.63330078 62.19604492 C-11.04310279 41.47623818 -5.51721666 20.73934304 0 0 Z " fill="#FEFEFE" transform="translate(837,17)"/>
<path d="M0 0 C15.51 0 31.02 0 47 0 C45.76654029 6.78402841 44.52395916 13.28860286 42.71606445 19.8972168 C42.38554172 21.12706692 42.38554172 21.12706692 42.04834175 22.3817625 C41.32420994 25.07207352 40.59377441 27.76062874 39.86328125 30.44921875 C39.34619978 32.36550189 38.8295312 34.28189649 38.31324768 36.19839478 C37.21879607 40.25785314 36.12160891 44.31655771 35.02215576 48.37466431 C33.29893686 54.73516126 31.58179081 61.09728739 29.86572266 67.4597168 C27.87503203 74.83900658 25.88312428 82.217965 23.88928986 89.59640598 C20.15708197 103.40862451 16.44462092 117.22600536 12.74810791 131.04782104 C11.8792996 134.29642317 11.00982195 137.54484543 10.14013672 140.79321289 C8.42619109 147.19532366 6.71303319 153.59764504 5 160 C2.6406106 168.81796348 0.28081317 177.63581749 -2.07977295 186.45346069 C-3.02186242 189.97317507 -3.9633463 193.49305101 -4.90478516 197.01293945 C-6.59863631 203.34318691 -8.29725011 209.67214054 -10 216 C-10.2857489 217.06263062 -10.5714978 218.12526123 -10.86590576 219.22009277 C-11.69841267 222.31148842 -12.53416248 225.40198708 -13.37109375 228.4921875 C-13.74778954 229.89188278 -13.74778954 229.89188278 -14.13209534 231.31985474 C-14.36363815 232.17191498 -14.59518097 233.02397522 -14.83374023 233.90185547 C-15.03571518 234.64837372 -15.23769012 235.39489197 -15.44578552 236.16403198 C-16 238 -16 238 -17 240 C-32.51 240 -48.02 240 -64 240 C-59.36996255 220.32234083 -59.36996255 220.32234083 -56.85571289 210.91868591 C-56.67122589 210.2275363 -56.48673889 209.53638668 -56.29666138 208.82429314 C-56.10595062 208.11012796 -55.91523987 207.39596279 -55.71875 206.66015625 C-55.30833618 205.11630354 -54.89810411 203.57240251 -54.48803711 202.02845764 C-53.39015313 197.89774485 -52.28900825 193.76790821 -51.18704224 189.63828278 C-50.49331556 187.03743943 -49.80057579 184.43633516 -49.1081543 181.83514404 C-41.67861816 153.92619122 -34.16808291 126.03946654 -26.61373329 98.16406631 C-20.83351706 76.8340626 -15.10811108 55.49076933 -9.5057373 34.1131897 C-6.48291991 22.687172 -3.24991181 11.37469134 0 0 Z " fill="#FEFEFE" transform="translate(742,15)"/>
<path d="" fill="#EAEAEA" transform="translate(0,0)"/>
</svg>
